<svg width="688" height="439" viewBox="0 0 688 439" fill="none" xmlns="http://www.w3.org/2000/svg">
<g clip-path="url(#clip0_101_0)">
<path d="M185.59 88.5101C183.53 84.2001 184.44 78.64 187.77 75.21C191.1 71.78 196.62 70.7001 200.99 72.6201C200.85 62.9601 207.8 54.5901 215.56 48.8301C219.57 45.8601 224.06 43.26 229.02 42.7C235.55 41.97 242.08 44.96 246.95 49.37C251.82 53.78 255.29 59.51 258.49 65.25C260.49 61.89 265.22 60.5 268.73 62.23C272.24 63.96 273.99 68.57 272.54 72.2C280.28 70.92 288.38 77.48 288.73 85.32" fill="white"/>
<path d="M438.97 45.4101C440.69 41.8001 439.93 37.1501 437.15 34.2701C434.36 31.4001 429.74 30.4901 426.08 32.1001C426.19 24.0101 420.38 17.0001 413.88 12.1801C410.52 9.69013 406.76 7.51013 402.61 7.05013C397.14 6.44013 391.67 8.94013 387.59 12.6301C383.51 16.3201 380.61 21.1201 377.93 25.9301C376.25 23.1201 372.29 21.9501 369.36 23.4001C366.43 24.8501 364.95 28.7101 366.17 31.7501C359.69 30.6701 352.9 36.1701 352.61 42.7401" fill="white"/>
<path d="M116.75 145.93C118.11 143.07 117.51 139.4 115.31 137.13C113.11 134.86 109.45 134.14 106.55 135.42C106.64 129.02 102.04 123.48 96.9 119.67C94.25 117.7 91.27 115.98 87.99 115.61C83.66 115.13 79.34 117.1 76.12 120.02C72.89 122.94 70.6 126.73 68.48 130.53C67.15 128.31 64.02 127.38 61.7 128.53C59.38 129.68 58.21 132.73 59.18 135.13C54.05 134.28 48.69 138.63 48.46 143.82" fill="white"/>
<path d="M573.66 145.93C575.02 143.07 574.42 139.4 572.22 137.13C570.02 134.86 566.36 134.14 563.46 135.42C563.55 129.02 558.95 123.48 553.81 119.67C551.16 117.7 548.18 115.98 544.9 115.61C540.57 115.13 536.25 117.1 533.03 120.02C529.81 122.94 527.51 126.73 525.39 130.53C524.06 128.31 520.93 127.38 518.61 128.53C516.29 129.68 515.12 132.73 516.09 135.13C510.96 134.28 505.6 138.63 505.37 143.82" fill="white"/>
<path d="M499.9 177.58C499.9 175.01 497.82 172.92 495.24 172.92C492.66 172.92 490.58 175 490.58 177.58C490.58 180.16 492.66 182.24 495.24 182.24C497.82 182.24 499.9 180.15 499.9 177.58Z" fill="white"/>
<path d="M241.18 136.34C241.18 134.14 239.39 132.35 237.19 132.35C234.99 132.35 233.2 134.14 233.2 136.34C233.2 138.54 234.99 140.33 237.19 140.33C239.39 140.33 241.18 138.55 241.18 136.34Z" fill="white"/>
<path d="M269.78 93.1102C269.78 90.5402 267.7 88.4502 265.12 88.4502C262.54 88.4502 260.46 90.5302 260.46 93.1102C260.46 95.6802 262.54 97.7702 265.12 97.7702C267.7 97.7702 269.78 95.6802 269.78 93.1102Z" fill="white"/>
<path d="M251.16 85.1303C251.16 84.4003 250.56 83.8003 249.83 83.8003C249.1 83.8003 248.5 84.4003 248.5 85.1303C248.5 85.8603 249.1 86.4603 249.83 86.4603C250.56 86.4603 251.16 85.8703 251.16 85.1303Z" fill="white"/>
<path d="M396.81 101.1C398.649 101.1 400.14 99.6095 400.14 97.7704C400.14 95.9313 398.649 94.4404 396.81 94.4404C394.971 94.4404 393.48 95.9313 393.48 97.7704C393.48 99.6095 394.971 101.1 396.81 101.1Z" fill="white"/>
<path d="M613.63 345.84C613.63 343.27 611.55 341.18 608.97 341.18C606.4 341.18 604.31 343.26 604.31 345.84C604.31 348.42 606.39 350.5 608.97 350.5C611.54 350.5 613.63 348.41 613.63 345.84Z" fill="white"/>
<path d="M121.47 244.75C121.47 243.28 120.28 242.09 118.81 242.09C117.34 242.09 116.15 243.28 116.15 244.75C116.15 246.22 117.34 247.41 118.81 247.41C120.28 247.41 121.47 246.22 121.47 244.75Z" fill="white"/>
<path d="M117.48 184.89C117.48 181.22 114.5 178.24 110.83 178.24C107.16 178.24 104.18 181.22 104.18 184.89C104.18 188.56 107.16 191.54 110.83 191.54C114.5 191.54 117.48 188.57 117.48 184.89Z" fill="white"/>
<g opacity="0.68">
<path opacity="0.68" d="M5.51994 432.3C-1.64006 424.19 -1.55006 400.7 4.13994 391.5C9.82994 382.3 21.8399 377.52 32.2999 380.31C27.3799 361.17 31.4099 340.87 37.3899 322.03C41.8199 308.05 47.5299 294.06 57.5099 283.3C72.8599 266.74 96.8099 260.01 119.32 261.78C141.83 263.55 163.1 272.91 182.5 284.46C195.38 234.42 209.81 181.63 247.12 145.89C294.7 100.3 373.91 94.9999 430.14 129.33C486.37 163.66 517.62 232.54 512.12 298.19C532.74 296.13 554.81 299.25 571.25 311.87C587.69 324.48 596.55 348.17 587.83 366.97C630.71 357.14 678.62 387.91 687.52 430.99" fill="#A5CDF2"/>
</g>
<g opacity="0.24">
<path opacity="0.24" d="M5.51994 432.3C-1.64006 425.64 -1.55006 406.39 4.13994 398.84C9.82994 391.29 21.8399 387.38 32.2999 389.66C27.3799 373.96 31.4099 357.31 37.3899 341.86C41.8199 330.39 47.5299 318.92 57.5099 310.09C72.8599 296.51 96.8099 290.99 119.32 292.44C141.83 293.89 163.1 301.57 182.5 311.04C195.38 270 209.81 226.7 247.12 197.39C294.69 160.01 373.91 155.66 430.13 183.82C486.35 211.98 517.61 268.47 512.11 322.32C532.73 320.63 554.8 323.19 571.24 333.54C587.68 343.89 596.54 363.31 587.82 378.73C630.7 370.67 678.61 395.9 687.51 431.24" fill="#A5CDF2"/>
</g>
<g opacity="0.28">
<g opacity="0.28">
<g opacity="0.28">
<g opacity="0.28">
<path opacity="0.28" d="M269.57 323.83C265.64 331.72 261.61 339.57 257.46 347.35C252.76 356.18 247.92 364.94 242.92 373.61C249.94 392.36 255.56 411.62 259.7 431.21L306.85 431.1C306.85 431.11 292.45 378.98 269.57 323.83Z" fill="#4F6AFF"/>
<path opacity="0.28" d="M237.29 359.39C238.76 362.9 240.18 366.42 241.54 369.97C250.77 353.87 259.45 337.46 267.7 320.85C267.81 320.63 267.95 320.46 268.11 320.33C266.85 317.33 265.56 314.32 264.25 311.31C254.76 326.95 245.82 342.91 237.42 359.17C237.38 359.26 237.34 359.33 237.29 359.39Z" fill="#4F6AFF"/>
<path opacity="0.28" d="M183.96 378.23C188.68 386.8 193.46 395.36 197.28 404.39C200.62 412.29 203.54 420.89 203.44 429.58C208.61 422.39 213.62 415.09 218.47 407.68C225.83 396.43 232.87 384.95 239.61 373.32C229.77 347.33 217.22 322.38 202.27 298.96C193.26 284.85 183.37 271.32 172.67 258.46C172.62 258.47 172.57 258.49 172.52 258.49C165.31 259.24 158.13 260.19 150.98 261.35C145.35 262.27 139.75 263.32 134.17 264.49C135.68 269.49 137.8 274.14 140.56 278.17C159.86 306.38 133.31 295.9 118.29 303.41C117.36 303.87 116.41 304.47 115.45 305.2C126.71 309.65 136.17 317.34 144.74 325.74C160.48 341.19 173.34 358.95 183.96 378.23Z" fill="#4F6AFF"/>
<path opacity="0.28" d="M246.39 392.73C244.69 387.44 242.88 382.19 240.97 376.97C230.11 395.62 218.49 413.83 205.88 431.33L256.63 431.21C253.87 418.23 250.45 405.38 246.39 392.73Z" fill="#4F6AFF"/>
<path opacity="0.28" d="M170.36 255.71C159.73 243.16 148.31 231.28 136.18 220.15C131 232.66 130.03 248.13 133.36 261.58C145.59 259.03 157.94 257.08 170.36 255.71Z" fill="#4F6AFF"/>
<path opacity="0.28" d="M159.32 197.86C158.83 202.17 162.64 206.7 167.19 206.02C171.32 205.41 174.01 200.72 172.86 196.84C172.82 196.71 172.8 196.58 172.79 196.45C167.86 195.88 163.36 196.27 159.3 197.43C159.32 197.57 159.33 197.71 159.32 197.86Z" fill="#4F6AFF"/>
<path opacity="0.28" d="M192.7 401.47C188.8 393.03 184.21 384.94 179.73 376.8C174.51 367.33 168.57 358.26 161.97 349.69C155.45 341.23 148.27 333.24 140.53 325.88C132.85 318.58 124.33 311.88 114.37 308C113.83 307.79 113.52 307.37 113.41 306.91C102.84 316.79 93.8298 340.73 118.28 361.32C146.49 385.08 140.55 388.05 136.1 405.87C131.65 423.69 138.69 431.49 138.69 431.49L200.36 431.35C200.97 421 196.96 410.7 192.7 401.47Z" fill="#4F6AFF"/>
<path opacity="0.28" d="M137.54 217.3C151.99 230.48 165.45 244.74 177.78 259.92C199.79 287.01 218.29 316.94 232.67 348.75C233.73 351.1 234.77 353.45 235.78 355.82C243.93 340.12 252.6 324.7 261.78 309.58C262.13 309.01 262.67 308.81 263.18 308.87C239.71 255.6 208.88 203.65 175.99 196.96C176.99 202.34 173.15 208.2 167.6 209C161.63 209.86 156.01 204.39 156.26 198.48C147.91 201.86 141.64 208.71 137.49 217.25C137.5 217.27 137.52 217.28 137.54 217.3Z" fill="#4F6AFF"/>
</g>
<g opacity="0.28">
<path opacity="0.28" d="M227.78 432.1C227.78 432.1 206.63 400.1 183.83 371.61C177.4 379.32 171.19 387.21 165.21 395.26C165.18 395.3 165.15 395.33 165.13 395.36C174.68 406.54 183.69 418.17 192.14 430.21C192.42 430.61 192.33 431.01 192.07 431.27L227.78 432.1Z" fill="white"/>
<path opacity="0.28" d="M163.86 393.89C169.89 385.78 176.14 377.85 182.61 370.09C179.2 365.86 175.76 361.72 172.35 357.79C167.01 367.65 162.12 377.77 159.3 388.67C160.83 390.39 162.35 392.14 163.86 393.89Z" fill="white"/>
<path opacity="0.28" d="M190.48 431.18C186.96 426.16 183.34 421.22 179.63 416.34C178.54 414.91 177.44 413.5 176.34 412.08C176.27 412.09 176.2 412.1 176.12 412.1C161.47 412.08 146.7 411.83 132.26 414.61C131.05 414.84 130.54 413 131.75 412.76C145.95 410.02 160.45 410.14 174.85 410.17C164.36 396.9 153.12 384.21 141.23 372.18C141.05 373.6 140.4 374.73 139.11 375.48C127.79 382.08 126.85 358.5 107.04 367.93C87.2298 377.36 145.71 430.19 145.71 430.19L190.52 431.22C190.51 431.22 190.49 431.2 190.48 431.18Z" fill="white"/>
<path opacity="0.28" d="M151.08 379.67C153.33 382.07 155.56 384.51 157.76 386.96C160.72 376.15 165.65 366.07 171 356.25C156.12 339.29 142.1 326.67 134.39 328.34C116.66 332.19 138.61 356.83 141.06 369.31C144.45 372.71 147.8 376.16 151.08 379.67Z" fill="white"/>
</g>
</g>
</g>
</g>
<g opacity="0.28">
<g opacity="0.28">
<g opacity="0.28">
<g opacity="0.28">
<path opacity="0.28" d="M403.32 323.83C407.25 331.72 411.28 339.57 415.43 347.35C420.13 356.18 424.97 364.94 429.97 373.61C422.95 392.36 417.33 411.62 413.19 431.21L366.04 431.1C366.04 431.11 380.44 378.98 403.32 323.83Z" fill="#4F6AFF"/>
<path opacity="0.28" d="M435.6 359.39C434.13 362.9 432.71 366.42 431.35 369.97C422.12 353.87 413.44 337.46 405.19 320.85C405.08 320.63 404.94 320.46 404.78 320.33C406.04 317.33 407.33 314.32 408.64 311.31C418.13 326.95 427.07 342.91 435.47 359.17C435.51 359.26 435.55 359.33 435.6 359.39Z" fill="#4F6AFF"/>
<path opacity="0.28" d="M488.93 378.23C484.21 386.8 479.43 395.36 475.61 404.39C472.27 412.29 469.35 420.89 469.45 429.58C464.28 422.39 459.27 415.09 454.42 407.68C447.06 396.43 440.02 384.95 433.28 373.32C443.12 347.33 455.67 322.38 470.62 298.96C479.63 284.85 489.52 271.32 500.22 258.46C500.27 258.47 500.32 258.49 500.38 258.49C507.59 259.24 514.77 260.19 521.92 261.35C527.55 262.27 533.15 263.32 538.73 264.49C537.22 269.49 535.1 274.14 532.34 278.17C513.04 306.38 539.59 295.9 554.61 303.41C555.54 303.87 556.49 304.47 557.45 305.2C546.19 309.65 536.73 317.34 528.16 325.74C512.41 341.19 499.55 358.95 488.93 378.23Z" fill="#4F6AFF"/>
<path opacity="0.28" d="M426.49 392.73C428.19 387.44 430 382.19 431.91 376.97C442.77 395.62 454.39 413.83 467 431.33L416.25 431.21C419.02 418.23 422.44 405.38 426.49 392.73Z" fill="#4F6AFF"/>
<path opacity="0.28" d="M502.53 255.71C513.16 243.16 524.58 231.28 536.71 220.15C541.89 232.66 542.86 248.13 539.53 261.58C527.3 259.03 514.95 257.08 502.53 255.71Z" fill="#4F6AFF"/>
<path opacity="0.28" d="M513.57 197.86C514.06 202.17 510.25 206.7 505.7 206.02C501.57 205.41 498.88 200.72 500.03 196.84C500.07 196.71 500.09 196.58 500.1 196.45C505.03 195.88 509.53 196.27 513.59 197.43C513.56 197.57 513.55 197.71 513.57 197.86Z" fill="#4F6AFF"/>
<path opacity="0.28" d="M480.19 401.47C484.09 393.03 488.68 384.94 493.16 376.8C498.38 367.33 504.32 358.26 510.92 349.69C517.44 341.23 524.62 333.24 532.36 325.88C540.04 318.58 548.56 311.88 558.52 308C559.06 307.79 559.37 307.37 559.48 306.91C570.05 316.79 579.06 340.73 554.61 361.32C526.4 385.08 532.34 388.05 536.79 405.87C541.24 423.69 534.2 431.49 534.2 431.49L472.53 431.35C471.92 421 475.93 410.7 480.19 401.47Z" fill="#4F6AFF"/>
<path opacity="0.28" d="M535.35 217.3C520.9 230.48 507.44 244.74 495.11 259.92C473.1 287.01 454.6 316.94 440.22 348.75C439.16 351.1 438.12 353.45 437.11 355.82C428.96 340.12 420.29 324.7 411.11 309.58C410.76 309.01 410.22 308.81 409.71 308.87C433.18 255.6 464.01 203.65 496.9 196.96C495.9 202.34 499.74 208.2 505.29 209C511.26 209.86 516.88 204.39 516.63 198.48C524.98 201.86 531.25 208.71 535.4 217.25C535.39 217.27 535.37 217.28 535.35 217.3Z" fill="#4F6AFF"/>
</g>
<g opacity="0.28">
<path opacity="0.28" d="M445.11 432.1C445.11 432.1 466.26 400.1 489.06 371.61C495.49 379.32 501.7 387.21 507.68 395.26C507.71 395.3 507.74 395.33 507.76 395.36C498.21 406.54 489.2 418.17 480.75 430.21C480.47 430.61 480.56 431.01 480.82 431.27L445.11 432.1Z" fill="white"/>
<path opacity="0.28" d="M509.03 393.89C503 385.78 496.75 377.85 490.28 370.09C493.69 365.86 497.13 361.72 500.54 357.79C505.88 367.65 510.77 377.77 513.59 388.67C512.06 390.39 510.54 392.14 509.03 393.89Z" fill="white"/>
<path opacity="0.28" d="M482.41 431.18C485.93 426.16 489.55 421.22 493.26 416.34C494.35 414.91 495.45 413.5 496.55 412.08C496.62 412.09 496.69 412.1 496.77 412.1C511.42 412.08 526.19 411.83 540.63 414.61C541.84 414.84 542.35 413 541.14 412.76C526.94 410.02 512.44 410.14 498.04 410.17C508.53 396.9 519.77 384.21 531.66 372.18C531.84 373.6 532.49 374.73 533.78 375.48C545.1 382.08 546.04 358.5 565.85 367.93C585.66 377.36 527.18 430.19 527.18 430.19L482.37 431.22C482.38 431.22 482.39 431.2 482.41 431.18Z" fill="white"/>
<path opacity="0.28" d="M531.83 369.31C534.28 356.82 556.22 332.19 538.5 328.34C530.79 326.66 516.77 339.28 501.89 356.25C507.24 366.07 512.17 376.15 515.13 386.96C517.33 384.51 519.56 382.07 521.81 379.67C525.09 376.16 528.43 372.71 531.83 369.31Z" fill="white"/>
</g>
</g>
</g>
</g>
<g opacity="0.61">
<path opacity="0.61" d="M49.1299 432.3C51.9599 417.88 73.1899 403.51 87.4999 406.89C91.6299 390.47 113.99 381.96 127.99 391.46C132.56 374 138.23 354.95 153.36 345.13C170.59 333.93 194.61 339.41 210.51 352.43C226.41 365.45 236.05 384.4 245.25 402.78C246.7 398.15 253.25 396.95 257.48 399.34C261.71 401.73 264.09 406.34 266.15 410.74C289.22 399.3 305.63 375.42 308.06 349.79L350.94 340.71C355.06 358.39 359.76 377.13 372.88 389.67C386 402.21 410.51 404.49 420.7 389.46C422.96 386.13 424.6 381.99 428.24 380.27C435.38 376.89 442.23 385.27 445.75 392.34C452.09 379.94 472.05 377.92 480.75 388.78C487.95 364.11 514.38 346.64 539.9 349.68C565.42 352.72 587 375.91 588.21 401.58C605.09 395.09 633.38 413.58 638.39 430.96" fill="white"/>
</g>
<g opacity="0.79">
<path opacity="0.79" d="M310.97 360.38C309.4 363.92 308.44 367.73 308.14 371.59C308.1 372.17 308.07 372.78 308.29 373.33C308.8 374.61 310.51 375.03 311.81 374.59C313.11 374.15 314.09 373.09 315.02 372.07C315.71 385.22 321.98 397.98 331.97 406.56C332.47 406.99 333.05 407.43 333.7 407.36C334.24 407.3 334.68 406.91 335.06 406.53C344.49 397.26 349.52 383.7 348.43 370.52C350.76 372.03 353.99 369.49 354.2 366.72C354.42 363.95 352.75 361.43 351.15 359.16" fill="white"/>
</g>
<path d="M363 337.61V337.53V316.56H301.94V337.53V337.45C293.94 342.64 290.06 351.71 290.06 361.96H374.88C374.88 351.72 371 342.8 363 337.61Z" fill="#18004C"/>
<path d="M321.85 321.59C335.22 327.05 363 337.53 363 337.53V316.56H309.5C313.58 318.33 317.75 319.92 321.85 321.59Z" fill="#0A0A0A"/>
<path d="M388.08 238.13L411.17 265.15C416.78 271.72 419.36 280.36 418.25 288.93L411.97 337.73C411.53 341.16 408.31 343.53 404.9 342.93C401.88 342.4 399.74 339.7 399.9 336.64L401.07 314.62C401.79 301.09 392.51 289.07 379.25 286.34L388.08 238.13Z" fill="#FF3040"/>
<path d="M278.3 238.13L255.21 265.15C249.6 271.72 247.02 280.36 248.13 288.93L254.41 337.73C254.85 341.16 258.07 343.53 261.48 342.93C264.5 342.4 266.64 339.7 266.48 336.64L265.31 314.62C264.59 301.09 273.87 289.07 287.13 286.34L278.3 238.13Z" fill="#FF3040"/>
<path d="M402.84 255.4L388.08 238.13L379.26 286.33C381.87 286.87 384.32 287.78 386.58 288.97C391.78 277.67 397.15 266.46 402.84 255.4Z" fill="#CF0019"/>
<path d="M265.94 269.03C270.96 275.51 276.09 281.89 281.2 288.29C283.06 287.43 285.04 286.75 287.12 286.32L278.3 238.12L259.66 259.94C261.97 263.15 264.04 266.57 265.94 269.03Z" fill="#CF0019"/>
<path d="M289.65 309.4C289.65 309.4 275.39 272.74 276.07 234.05C276.75 195.36 267.25 109.83 294.4 54.1598C310.6 20.9498 320.76 7.30981 326.32 1.71981C328.84 -0.810193 333.01 -0.510193 335.14 2.34981C343.67 13.7798 365.67 43.8298 371.1 56.8798C377.89 73.1698 393.5 104.4 388.07 238.12C388.07 238.12 385.35 287.67 375.85 309.4H289.65Z" fill="white"/>
<path opacity="0.37" d="M290.48 98.1798C294.43 71.5998 300.89 44.0498 316.91 21.9298C317.58 20.9998 318.37 20.3098 319.22 19.8298C323.27 13.2398 327.47 6.73978 331.48 0.119784C329.67 -0.200216 327.74 0.299784 326.33 1.71978C320.77 7.31978 310.61 20.9598 294.41 54.1598C267.26 109.82 276.76 195.35 276.08 234.05C275.4 272.74 289.66 309.4 289.66 309.4L376.58 309C291.93 308.07 285.08 232.15 283.97 190.14C283.15 159.44 285.97 128.53 290.48 98.1798Z" fill="#95A1E6"/>
<path d="M360.11 54.8797C363.79 55.4597 367.46 56.1397 371.11 56.9097C371.11 56.8997 371.1 56.8897 371.1 56.8897C365.66 43.8397 343.67 13.7997 335.14 2.35971C333 -0.50029 328.83 -0.81029 326.32 1.72971C320.76 7.32971 310.6 20.9697 294.4 54.1697C294.05 54.8797 293.74 55.6197 293.4 56.3397C315.11 50.9197 338.11 51.4097 360.11 54.8797Z" fill="#FF3040"/>
<path d="M317.47 29.6999C323.89 21.2099 329.89 12.4199 336.32 3.92994C335.91 3.37994 335.51 2.83994 335.15 2.34994C333.01 -0.510056 328.84 -0.820055 326.33 1.71994C320.77 7.31994 310.61 20.9599 294.41 54.1599C294.06 54.8699 293.75 55.6099 293.41 56.3299C296.47 55.5699 299.56 54.9299 302.67 54.3899C306.09 45.4099 311.65 37.3899 317.47 29.6999Z" fill="#CF0019"/>
<path d="M372.87 320.57H293.31C289.73 320.57 286.83 317.67 286.83 314.09C286.83 310.51 289.73 307.61 293.31 307.61H372.87C376.45 307.61 379.35 310.51 379.35 314.09C379.35 317.67 376.45 320.57 372.87 320.57Z" fill="#18004C"/>
<path d="M331.24 84.6499C312.33 84.6499 297.01 99.9799 297.01 118.88C297.01 137.79 312.34 153.11 331.24 153.11C350.15 153.11 365.47 137.78 365.47 118.88C365.47 99.9799 350.15 84.6499 331.24 84.6499ZM331.24 143.14C317.84 143.14 306.98 132.28 306.98 118.88C306.98 105.48 317.84 94.6199 331.24 94.6199C344.64 94.6199 355.5 105.48 355.5 118.88C355.5 132.28 344.64 143.14 331.24 143.14Z" fill="#18004C"/>
<path opacity="0.37" d="M336.669 142.527C349.725 139.518 357.869 126.495 354.859 113.44C351.85 100.384 338.827 92.2402 325.771 95.2495C312.716 98.2587 304.572 111.282 307.581 124.337C310.591 137.393 323.614 145.537 336.669 142.527Z" fill="#95A1E6"/>
<g opacity="0.6">
<path opacity="0.6" d="M307.07 120.58C307.94 133.19 318.42 143.15 331.25 143.15C333.25 143.15 335.19 142.88 337.05 142.42C326.95 135.27 316.96 127.99 307.07 120.58Z" fill="#FCFAF5"/>
<path opacity="0.6" d="M349.79 134.5C353.35 130.28 355.5 124.83 355.5 118.88C355.5 105.48 344.64 94.6201 331.24 94.6201C322.56 94.6201 314.97 99.1901 310.69 106.04C323.55 115.76 336.58 125.27 349.79 134.5Z" fill="#FCFAF5"/>
</g>
<path d="M333.55 89.7402C333.55 88.4602 332.51 87.4302 331.24 87.4302C329.96 87.4302 328.93 88.4702 328.93 89.7402C328.93 91.0202 329.97 92.0502 331.24 92.0502C332.52 92.0502 333.55 91.0202 333.55 89.7402Z" stroke="#4F6AFF" stroke-width="0.3478" stroke-miterlimit="10"/>
<path d="M333.55 148.03C333.55 146.75 332.51 145.72 331.24 145.72C329.96 145.72 328.93 146.76 328.93 148.03C328.93 149.31 329.97 150.34 331.24 150.34C332.52 150.34 333.55 149.3 333.55 148.03Z" stroke="#4F6AFF" stroke-width="0.3478" stroke-miterlimit="10"/>
<path d="M353.48 99.9103C354.38 99.0103 354.38 97.5403 353.48 96.6403C352.58 95.7403 351.11 95.7403 350.21 96.6403C349.31 97.5403 349.31 99.0103 350.21 99.9103C351.12 100.82 352.58 100.82 353.48 99.9103Z" stroke="#4F6AFF" stroke-width="0.3478" stroke-miterlimit="10"/>
<path d="M310.63 141.8C311.906 141.8 312.94 140.766 312.94 139.49C312.94 138.214 311.906 137.18 310.63 137.18C309.354 137.18 308.32 138.214 308.32 139.49C308.32 140.766 309.354 141.8 310.63 141.8Z" stroke="#4F6AFF" stroke-width="0.3478" stroke-miterlimit="10"/>
<path d="M360.38 121.2C361.66 121.2 362.69 120.16 362.69 118.89C362.69 117.61 361.65 116.58 360.38 116.58C359.1 116.58 358.07 117.62 358.07 118.89C358.07 120.16 359.11 121.2 360.38 121.2Z" stroke="#4F6AFF" stroke-width="0.3478" stroke-miterlimit="10"/>
<path d="M302.1 121.2C303.38 121.2 304.41 120.16 304.41 118.89C304.41 117.61 303.37 116.58 302.1 116.58C300.83 116.58 299.79 117.62 299.79 118.89C299.79 120.16 300.82 121.2 302.1 121.2Z" stroke="#4F6AFF" stroke-width="0.3478" stroke-miterlimit="10"/>
<path d="M350.21 141.13C351.11 142.03 352.58 142.03 353.48 141.13C354.38 140.23 354.38 138.76 353.48 137.86C352.58 136.96 351.11 136.96 350.21 137.86C349.31 138.76 349.31 140.22 350.21 141.13Z" stroke="#4F6AFF" stroke-width="0.3478" stroke-miterlimit="10"/>
<path d="M310.63 100.59C311.906 100.59 312.94 99.556 312.94 98.2802C312.94 97.0044 311.906 95.9702 310.63 95.9702C309.354 95.9702 308.32 97.0044 308.32 98.2802C308.32 99.556 309.354 100.59 310.63 100.59Z" stroke="#4F6AFF" stroke-width="0.3478" stroke-miterlimit="10"/>
<path d="M275.73 167.92C275.73 167.92 333.09 148.49 386.75 166.99" stroke="#4F6AFF" stroke-width="0.6955" stroke-miterlimit="10" stroke-dasharray="5.56 5.56"/>
<path d="M282.74 84.4697C298.78 80.2497 339.91 71.8597 380.33 83.5497" stroke="#4F6AFF" stroke-width="0.6955" stroke-miterlimit="10" stroke-dasharray="5.56 5.56"/>
<path d="M275.73 181.8C275.73 181.8 333.09 162.37 386.75 180.87" stroke="#4F6AFF" stroke-width="0.6955" stroke-miterlimit="10" stroke-dasharray="5.56 5.56"/>
<g opacity="0.79">
<path opacity="0.79" d="M353.92 377.07C355.26 381.78 357.2 386.23 359.72 390.31C362.26 394.37 365.35 398.08 368.97 401.18C372.56 404.31 376.67 406.84 381.05 408.77C385.45 410.69 390.14 411.97 394.98 412.62C390.08 412.8 385.12 411.93 380.47 410.22C375.8 408.52 371.44 405.95 367.66 402.69C363.9 399.41 360.73 395.46 358.38 391.09C356.02 386.72 354.45 381.94 353.92 377.07Z" fill="white"/>
</g>
<g opacity="0.79">
<path opacity="0.79" d="M311.89 381.77C311.39 386.13 310.12 390.42 308.3 394.45C306.49 398.5 304.09 402.28 301.28 405.72C298.44 409.13 295.18 412.21 291.55 414.75C287.93 417.3 283.96 419.36 279.78 420.68C283.64 418.6 287.26 416.22 290.61 413.51C293.94 410.79 297.02 407.77 299.74 404.45C302.49 401.15 304.87 397.56 306.91 393.77C308.93 389.96 310.58 385.95 311.89 381.77Z" fill="white"/>
</g>
<g opacity="0.79">
<path opacity="0.79" d="M315.84 405.04C315.55 406.56 315.07 407.98 314.54 409.38C314.01 410.78 313.41 412.14 312.74 413.47C312.08 414.8 311.34 416.1 310.55 417.36C309.75 418.62 308.89 419.86 307.86 421C308.15 419.48 308.62 418.06 309.16 416.66C309.7 415.27 310.29 413.9 310.96 412.57C311.62 411.24 312.36 409.94 313.15 408.68C313.94 407.42 314.8 406.18 315.84 405.04Z" fill="white"/>
</g>
<g opacity="0.79">
<path opacity="0.79" d="M333.78 415.01C334.3 415.61 334.62 416.24 334.88 416.88C335.14 417.52 335.31 418.18 335.42 418.84C335.53 419.5 335.57 420.18 335.54 420.87C335.49 421.56 335.4 422.26 335.1 422.99C334.58 422.39 334.26 421.76 333.99 421.12C333.73 420.48 333.56 419.82 333.45 419.16C333.34 418.49 333.3 417.82 333.33 417.13C333.38 416.44 333.48 415.75 333.78 415.01Z" fill="white"/>
</g>
<g opacity="0.79">
<path opacity="0.79" d="M347.18 404.34L349.85 408.64C350.74 410.03 351.68 411.38 352.64 412.7C353.62 414.02 354.62 415.31 355.69 416.57L359 420.4C357.38 419.75 355.92 418.79 354.59 417.68C353.26 416.56 352.06 415.29 351.03 413.88C350 412.48 349.14 410.95 348.47 409.35C347.8 407.76 347.32 406.07 347.18 404.34Z" fill="white"/>
</g>
<path d="M157.538 373.255H238.828V367.385H157.538V373.255Z" fill="#18004C"/>
<path d="M205.18 436.71L237.7 373.48H157.77L125.25 436.71" stroke="#18004C" stroke-width="0.679" stroke-miterlimit="10"/>
<path d="M225.51 396.06H146.02" stroke="#18004C" stroke-width="0.679" stroke-miterlimit="10"/>
<path d="M211.51 423.16H132.02" stroke="#18004C" stroke-width="0.679" stroke-miterlimit="10"/>
<path d="M206.24 438.16L210.98 428.9L206.54 429.03L201.8 438.29L206.24 438.16Z" fill="#4F6AFF"/>
<path d="M127.21 438.16L131.95 428.9L127.51 429.03L122.77 438.29L127.21 438.16Z" fill="#4F6AFF"/>
<path d="M254.86 432.42L237.7 373.48" stroke="#18004C" stroke-width="0.679" stroke-miterlimit="10"/>
<path d="M175.15 432.42L157.99 373.48" stroke="#18004C" stroke-width="0.679" stroke-miterlimit="10"/>
<path d="M250.52 187.85C250.52 187.85 233.31 214.18 228.63 210.88C228.63 210.88 221.1 207.04 223.8 191.59C223.81 190.09 223.81 189.05 223.76 188.81C223.76 188.81 222.6 173.55 220.09 170.39C219.81 170.04 218.98 169.4 219.09 169.37C226.75 167.45 229.82 183.77 231.93 192.68C232.02 193.05 246.5 181.75 246.5 181.75C246.5 181.75 254.16 171.62 254.69 172.2C255.46 173.04 252.5 177.55 252.5 177.55C252.5 177.55 252.69 178.07 253.27 178.32C253.85 178.58 254.17 178.97 254.37 179.74C254.56 180.51 255.34 180.97 255.47 181.42C255.61 181.89 252.15 186.67 250.52 187.85Z" fill="#FEB38C"/>
<path d="M246.77 181.69C246.77 181.69 248.32 177.3 248.96 177.43C249.61 177.56 252.44 178.78 252.38 179.88C252.32 180.98 249.86 180.07 249.86 180.07C249.86 180.07 250.31 182.52 249.09 182.84C247.87 183.18 246.77 181.69 246.77 181.69Z" fill="#FEB38C"/>
<path d="M250.58 179.89C250.58 179.89 250.52 180.99 251.42 181.18C251.42 181.18 251.61 182.34 252.77 182.08C252.77 182.08 252.45 182.6 253.16 182.73C253.16 182.73 250.12 186.02 250.58 179.89Z" fill="#F79A88"/>
<path d="M250 177.75C250.61 177.96 251.22 178.2 251.82 178.46C252.13 178.6 252.4 178.7 252.72 178.92C252.87 179.03 253.03 179.17 253.11 179.42C253.2 179.67 253.08 179.97 252.92 180.11C252.28 180.62 251.55 180.63 250.9 180.61C250.74 180.59 250.55 180.58 250.54 180.6C250.52 180.53 250.54 180.76 250.56 180.91L250.62 181.88L250.59 181.89L250.41 180.94C250.4 180.79 250.28 180.61 250.42 180.46C250.57 180.35 250.75 180.4 250.9 180.39C251.53 180.39 252.23 180.34 252.71 179.92C252.82 179.81 252.88 179.66 252.84 179.51C252.8 179.36 252.68 179.24 252.56 179.15C252.31 178.96 252 178.84 251.72 178.68L250 177.79V177.75Z" fill="#EC7A65"/>
<path d="M252.59 177.45C252.57 177.6 252.54 177.72 252.48 177.83C252.43 177.94 252.34 178.02 252.27 178.12C252.17 178.19 252.09 178.28 251.98 178.33C251.87 178.39 251.74 178.43 251.59 178.45L251.57 178.43C251.89 178.08 252.22 177.75 252.57 177.42L252.59 177.45Z" fill="#EC7A65"/>
<path d="M253.9 179.07C253.75 179.39 253.56 179.68 253.33 179.94C253.11 180.21 252.84 180.43 252.58 180.66C252.29 180.86 252.02 181.06 251.68 181.21C251.51 181.28 251.31 181.34 251.1 181.31C250.9 181.27 250.72 181.15 250.64 180.98L250.66 180.96C250.88 181.24 251.29 181.18 251.56 181.01C251.85 180.84 252.12 180.64 252.39 180.43C252.93 180.02 253.42 179.56 253.87 179.05L253.9 179.07Z" fill="#EC7A65"/>
<path d="M251.38 181.18C251.53 181.54 251.73 181.92 251.99 182.01C252.24 182.11 252.55 181.99 252.82 181.77C253.11 181.58 253.38 181.29 253.67 181.03C253.95 180.77 254.26 180.52 254.57 180.27L254.59 180.29C254.35 180.6 254.09 180.9 253.83 181.19C253.57 181.48 253.3 181.77 252.99 182.01C252.68 182.23 252.25 182.43 251.87 182.22C251.51 182 251.42 181.57 251.35 181.19L251.38 181.18Z" fill="#EC7A65"/>
<path d="M252.72 181.89C252.79 182.12 252.93 182.32 253.03 182.51C253.09 182.6 253.16 182.68 253.22 182.72C253.23 182.74 253.32 182.75 253.41 182.75C253.6 182.73 253.77 182.74 254.03 182.66C254.3 182.64 254.44 182.66 254.69 182.52L254.71 182.54C254.57 182.74 254.32 182.84 254.09 182.89C253.87 182.97 253.63 183.05 253.38 183.02C253.26 183 253.13 182.99 253.04 182.89C252.95 182.8 252.9 182.69 252.85 182.58C252.76 182.36 252.69 182.12 252.69 181.88L252.72 181.89Z" fill="#EC7A65"/>
<path d="M202.21 180.37C202.21 180.37 192 179.16 193.24 178.54C194.48 177.92 203.01 174.72 204.68 173.77C206.35 172.82 207.49 172.96 207.49 172.96L219.58 144.92C219.79 143.27 216.8 139.32 215.36 138.5C211.4 136.23 206.51 135.91 202.05 136.83C187.49 139.86 164.34 150.26 156.6 157.74C156.6 157.74 191.55 190.91 202.89 189.32" fill="#18004C"/>
<path d="M154.27 155.3C161.81 151.57 169.52 148.19 177.37 145.16C183.75 142.7 190.23 140.39 196.88 138.76C199.23 138.18 201.67 137.62 204.11 137.6C204.66 137.6 204.67 136.74 204.11 136.74C199.13 136.77 194.02 138.53 189.33 140.02C181.8 142.41 174.41 145.29 167.15 148.41C162.66 150.34 158.22 152.39 153.84 154.56C153.34 154.8 153.77 155.55 154.27 155.3Z" fill="#18004C"/>
<path d="M204.16 151.19C204.17 151.41 203.99 151.59 203.77 151.59C202.85 151.59 200.73 151.39 200.43 153.79C200.13 156.22 202.44 157.58 203.83 157.66C204.23 157.68 205.16 157.76 205.43 158.06C206.27 158.97 206.66 160.96 207.31 163.44C208.73 168.92 204.43 171.42 204.43 171.42C204.43 171.42 218.78 178.48 218.65 171.4C218.65 171.4 217.52 158.39 217.58 158.32C218.7 157.2 223.05 156.72 220.32 147.44C217.79 138.85 211.48 139.46 209.88 139.74C208.53 140 203.83 140.29 204.16 151.19Z" fill="#FEB38C"/>
<path d="M214.32 138.91C214.32 138.91 205.51 150.56 203.98 151.52C203.97 151.53 197.96 137.31 214.32 138.91Z" fill="#18004C"/>
<path d="M201.48 154.49C201.48 154.49 202.92 151.45 204.75 155.53L201.48 154.49Z" fill="#EC7A65"/>
<path d="M212.14 151.2C213.33 151.17 214.32 152.12 214.34 153.31C214.37 154.5 213.42 155.49 212.23 155.51C211.04 155.54 210.05 154.59 210.03 153.4C210 152.22 210.95 151.23 212.14 151.2Z" fill="#F79A88"/>
<path d="M221.12 152.01C220.13 151.83 219.37 150.98 219.35 149.94C219.33 149.14 219.76 148.43 220.4 148.04C220.4 148.04 221.32 150.42 221.12 152.01Z" fill="#F79A88"/>
<path d="M219.31 150.9L216.02 152.54C216.02 152.54 217.63 153.71 218.5 153.07C219.37 152.42 219.31 150.9 219.31 150.9Z" fill="white"/>
<path d="M216.79 148.51L217.31 150.86L218.45 150.36C218.66 150.27 218.69 149.98 218.51 149.84L216.79 148.51Z" fill="#EC7A65"/>
<path d="M212.57 147.63C212.28 148.03 212.45 146.64 212.92 146.32C213.39 146 213.99 146.07 214.27 146.47C214.27 146.47 213.26 146.67 212.57 147.63Z" fill="#1E274D"/>
<path d="M218.77 145.28C219.24 145.41 218.24 144.43 217.68 144.47C217.11 144.51 216.69 144.95 216.72 145.43C216.72 145.44 217.64 144.97 218.77 145.28Z" fill="#1E274D"/>
<path d="M214.47 149.36C214.63 149.75 214.91 150.01 215.1 149.93C215.29 149.85 215.32 149.47 215.16 149.08C215 148.69 214.72 148.43 214.53 148.51C214.34 148.58 214.31 148.96 214.47 149.36Z" fill="#1E274D"/>
<path d="M217.51 147.91C217.66 148.29 217.93 148.53 218.11 148.46C218.29 148.39 218.32 148.02 218.17 147.65C218.02 147.27 217.75 147.03 217.57 147.1C217.39 147.17 217.36 147.53 217.51 147.91Z" fill="#1E274D"/>
<path d="M217.59 158.33C217.59 158.33 213.49 159.11 211.42 158.98C209.35 158.85 219.71 170.74 217.59 158.33Z" fill="#1E274D"/>
<path d="M212.9 140.01C213.14 142.79 211.4 145.66 209.59 147.66C207.89 149.54 205.29 151.01 202.68 150.73C202.13 150.67 202.13 151.53 202.68 151.59C205.5 151.89 208.36 150.29 210.2 148.26C212.15 146.1 214.01 143.01 213.76 140C213.71 139.46 212.85 139.45 212.9 140.01Z" fill="#18004C"/>
<path d="M207.39 160.67C207.39 161.69 206.56 162.52 205.54 162.52C204.52 162.52 203.69 161.69 203.69 160.67C203.69 159.65 204.52 158.82 205.54 158.82C206.56 158.82 207.39 159.65 207.39 160.67Z" fill="white"/>
<path d="M207.39 164.37C207.39 165.39 206.56 166.22 205.54 166.22C204.52 166.22 203.69 165.39 203.69 164.37C203.69 163.35 204.52 162.52 205.54 162.52C206.56 162.52 207.39 163.35 207.39 164.37Z" fill="white"/>
<path d="M208.09 156.61L205.49 160.34L203.05 156.46L208.09 156.61Z" fill="#4F6AFF"/>
<path d="M206.74 347.61L208.33 358.87C208.33 358.87 210.87 366.34 213.24 363.45C215.6 360.56 217.94 359.03 217.94 359.03L218.72 347.32L206.74 347.61Z" fill="#F5836B"/>
<path d="M212.92 348.03L213.33 363.35C213.33 363.35 205.86 364.47 208.63 359.47L207 348.85L212.92 348.03Z" fill="#FEB38C"/>
<path d="M180.93 347.89L177.43 359.12C177.43 359.12 174.76 361.46 173.8 361.4C172.05 361.29 171.13 358.27 171.13 358.27L170.84 347.89H180.93Z" fill="#F5836B"/>
<path d="M175.88 344.89L173.43 363.47C173.43 363.47 168.41 364.8 171.18 359.79L170.57 345.49L175.88 344.89Z" fill="#FEB38C"/>
<path d="M218.7 358.97L228.13 366.61C228.61 366.97 228.27 367.57 227.58 367.58L213.66 367.69C213.32 367.69 213.02 367.54 212.91 367.31L211.86 365.16C211.56 364.54 210.95 364.49 211.01 365.15L210.5 367.23C210.53 367.56 207.2 367.47 207.17 367.17C206.99 365.32 207.37 359.28 207.7 357.6C207.75 357.36 207.99 357.17 208.32 357.12C208.62 357.08 208.92 357.16 209.1 357.33C210.04 358.24 213.04 360.98 214.65 360.42C215.72 360.05 217.11 359.38 217.55 359C217.84 358.74 218.38 358.73 218.7 358.97Z" fill="#FF3040"/>
<path d="M171 357.88L165.64 366.85C165.07 367.72 165.39 368.76 166.42 369.38C168.09 370.38 169.46 372.37 170.52 372.39C172.42 372.44 175.38 370.44 177.11 369.69C178.27 369.19 179.17 368.45 179.03 367.48L177.7 358.48C177.68 358.37 177.49 358.33 177.39 358.42L175.34 360.28C174.67 360.89 172.85 360.81 172.39 360.08C172.07 359.56 171.31 357.88 171.31 357.88C171.24 357.78 171.06 357.79 171 357.88Z" fill="#FF3040"/>
<path d="M197.32 207.82C193.26 215 191.11 220.27 188.77 229.4C186.06 239.99 161.02 329.6 159.74 348.87C163.08 349.67 188.96 349.56 191.07 349.44C197.78 330.21 206.78 267.75 209.66 255.64C210.1 253.78 212.98 254.19 212.76 256.09C211.13 269.92 201.1 328.2 196.72 349.48C198.47 350.37 225.11 350.17 227.14 349.92C229.34 326.19 241.01 236.36 223.39 207.24C215.32 206.12 205.49 207.58 197.32 207.82Z" fill="#4F6AFF"/>
<path d="M221.7 208.41C221.7 208.41 229.51 228.15 229.51 253.22C229.51 278.28 220.75 349.1 220.75 349.1" stroke="white" stroke-width="0.314" stroke-miterlimit="10"/>
<path d="M165 348.71L201.29 209.57" stroke="white" stroke-width="0.314" stroke-miterlimit="10"/>
<path d="M206.32 210.27C206.32 210.27 206.08 233.23 195.77 231.42" stroke="white" stroke-width="0.314" stroke-miterlimit="10"/>
<path d="M227.7 232.47C217.4 234.28 218.83 209.74 218.83 209.74" stroke="white" stroke-width="0.314" stroke-miterlimit="10"/>
<path opacity="0.21" d="M223.54 208.6L190.09 235.84C190.09 235.84 189.91 218.39 195.8 207.33L223.54 208.6Z" fill="#1E274D"/>
<path d="M221.6 170.39C221.37 170.96 227.95 187.39 227.67 192.96C227.39 198.58 227.51 206.62 227.81 207.46C227.81 207.46 219.49 212.32 195.44 208.53C188.05 202.06 194.54 180.07 197.03 173.11C197.03 173.11 201.76 170.74 203.8 170.59C203.8 170.6 212.51 174.17 221.6 170.39Z" fill="#18004C"/>
<path d="M203.74 170.57L207.15 166.11C207.15 166.11 211.21 168.99 217.3 171.12L217.23 178.98C217.21 179.2 216.97 179.33 216.77 179.23C214.83 178.24 206.31 174.36 203.74 170.57Z" fill="white"/>
<path d="M218.12 165.87C218.12 165.87 219.13 169.47 217.22 170.95L219.89 178.67C220.08 179.26 220.51 179.24 220.58 178.93C221 176.96 221.77 172.69 221.25 170.13L218.12 165.87Z" fill="white"/>
<path d="M219.4 179.31C219.4 179.89 219.15 180.35 218.84 180.35C218.53 180.35 218.28 179.88 218.28 179.31C218.28 178.73 218.53 178.27 218.84 178.27C219.15 178.26 219.4 178.73 219.4 179.31Z" fill="white"/>
<path d="M219.68 183.76C219.68 184.34 219.43 184.8 219.12 184.8C218.81 184.8 218.56 184.33 218.56 183.76C218.56 183.18 218.81 182.72 219.12 182.72C219.43 182.72 219.68 183.19 219.68 183.76Z" fill="white"/>
<path d="M219.89 188.67C219.89 189.25 219.64 189.71 219.33 189.71C219.02 189.71 218.77 189.24 218.77 188.67C218.77 188.09 219.02 187.63 219.33 187.63C219.64 187.63 219.89 188.1 219.89 188.67Z" fill="white"/>
<path d="M219.34 195.13C219.649 195.13 219.9 194.665 219.9 194.09C219.9 193.516 219.649 193.05 219.34 193.05C219.031 193.05 218.78 193.516 218.78 194.09C218.78 194.665 219.031 195.13 219.34 195.13Z" fill="white"/>
<path d="M219.89 199.51C219.89 200.09 219.64 200.55 219.33 200.55C219.02 200.55 218.77 200.08 218.77 199.51C218.77 198.93 219.02 198.47 219.33 198.47C219.64 198.47 219.89 198.93 219.89 199.51Z" fill="white"/>
<path d="M219.34 205.96C219.649 205.96 219.9 205.494 219.9 204.92C219.9 204.345 219.649 203.88 219.34 203.88C219.031 203.88 218.78 204.345 218.78 204.92C218.78 205.494 219.031 205.96 219.34 205.96Z" fill="white"/>
<path d="M200.98 258.84L169.9 238.93L182.8 218.8L209.65 236C211.99 237.5 212.67 240.6 211.17 242.94L200.98 258.84Z" fill="#98CCFE"/>
<path d="M196.16 238.64C196.16 241 194.25 242.92 191.88 242.92C189.52 242.92 187.6 241.01 187.6 238.64C187.6 236.27 189.51 234.36 191.88 234.36C194.25 234.37 196.16 236.28 196.16 238.64Z" fill="white"/>
<path opacity="0.6" d="M189.96 222.76C189.96 222.76 184.95 225.09 188.82 239.29C189.02 240.04 189.2 240.9 189.05 241.66L188.18 247.76C188.05 248.41 187.96 249.29 188.52 249.66C189.21 250.12 193.17 253.76 193.65 253.92C194.63 254.25 193.56 249.42 193.72 246.88C193.75 246.43 193.86 248.49 193.92 249.39L194.04 251.37C195.22 250.83 195.2 248.55 195.38 247.78C195.63 246.75 195.43 246.09 195.31 245.84C194.77 244.72 193.74 242.48 193.58 240.47C193.49 239.29 194.31 234.9 195 226.74L189.96 222.76Z" fill="#1E274D"/>
<path d="M189.32 188.19C180.03 240.07 186.06 249.92 186.67 250.33C187.43 250.84 191.77 254.82 192.29 255C193.36 255.36 192.19 250.07 192.37 247.28C192.4 246.78 192.52 249.04 192.59 250.03L192.72 252.21C194.02 251.62 193.99 249.12 194.19 248.28C194.46 247.15 194.24 246.43 194.11 246.16C193.52 244.93 192.39 242.48 192.21 240.28C192.11 238.98 200.91 196.85 202.46 190.66C204.56 182.25 201.92 172.58 198.95 172.26C195.28 171.83 190.09 183.89 189.32 188.19Z" fill="#FEB38C"/>
<path d="M246.46 132.49H263.56L269.15 139.07V123.28C269.15 118.19 266.06 114.07 262.25 114.07H246.47C242.66 114.07 239.57 118.19 239.57 123.28C239.56 128.37 242.65 132.49 246.46 132.49Z" fill="#FF3040"/>
<path d="M255.54 120.83H252.64V127.6H255.54V120.83Z" fill="white"/>
<path d="M251.44 123.03H248.54V127.59H251.44V123.03Z" fill="white"/>
<path d="M259.97 118.8H257.07V127.59H259.97V118.8Z" fill="white"/>
<path d="M438.05 174.22C438.05 167.65 432.73 162.33 426.16 162.33C419.59 162.33 414.27 167.65 414.27 174.22C414.27 180.79 425.59 191.1 425.59 191.1C425.59 191.1 438.05 180.78 438.05 174.22Z" fill="#4F6AFF"/>
<path d="M425.59 191.1C425.59 191.1 438.06 180.79 438.06 174.22C438.06 167.65 432.74 162.33 426.17 162.33" fill="#18004C"/>
<path d="M422.71 185.72C422.71 185.72 424.24 173.25 422.52 174.02C420.79 174.79 419.83 176.71 421.75 177.09C423.67 177.47 431.34 177.09 431.34 177.09C431.34 177.09 432.02 174.91 430.76 174.4C428.84 173.63 428.84 180.92 428.46 186.1" stroke="white" stroke-width="0.3166" stroke-miterlimit="10"/>
<path d="M430.38 188.41H420.79C420.05 188.41 419.45 187.81 419.45 187.07C419.45 186.33 420.05 185.73 420.79 185.73H430.38C431.12 185.73 431.72 186.33 431.72 187.07C431.73 187.81 431.12 188.41 430.38 188.41Z" fill="#18293D"/>
<path d="M425.78 194.55C422.71 194.55 420.22 192.06 420.22 188.99V188.03H431.34V188.99C431.34 192.06 428.85 194.55 425.78 194.55Z" fill="#18293D" stroke="#EAEBEC" stroke-width="0.4326" stroke-miterlimit="10"/>
<path d="M404.72 174.29H410.13" stroke="white" stroke-width="0.8127" stroke-miterlimit="10" stroke-linecap="round"/>
<path d="M442.56 174.29H447.96" stroke="white" stroke-width="0.8127" stroke-miterlimit="10" stroke-linecap="round"/>
<path d="M411.06 159L414.88 162.83" stroke="white" stroke-width="0.8127" stroke-miterlimit="10" stroke-linecap="round"/>
<path d="M437.81 185.76L441.63 189.58" stroke="white" stroke-width="0.8127" stroke-miterlimit="10" stroke-linecap="round"/>
<path d="M426.34 152.67V158.08" stroke="white" stroke-width="0.8127" stroke-miterlimit="10" stroke-linecap="round"/>
<path d="M441.63 159L437.81 162.83" stroke="white" stroke-width="0.8127" stroke-miterlimit="10" stroke-linecap="round"/>
<path d="M414.88 185.76L411.06 189.58" stroke="white" stroke-width="0.8127" stroke-miterlimit="10" stroke-linecap="round"/>
<path d="M437.21 228.36C437 226.71 442.52 206.89 443.32 205.43C445.4 201.59 454.93 200.83 459.06 203.44C465.74 207.67 476.03 226.88 473.95 231.87L437.21 228.36Z" fill="#EF001D"/>
<path d="M457.34 217.03C457.33 217.25 457.51 217.43 457.73 217.43C458.65 217.43 460.77 217.23 461.07 219.64C461.37 222.07 459.05 223.44 457.66 223.52C457.26 223.54 456.33 223.62 456.05 223.92C455.21 224.83 454.82 226.83 454.17 229.31C452.74 234.8 457.06 237.31 457.06 237.31C457.06 237.31 442.68 244.38 442.81 237.29C442.81 237.29 443.95 224.25 443.88 224.18C442.76 223.06 438.4 222.57 441.14 213.28C443.68 204.67 450 205.28 451.6 205.57C452.96 205.81 457.67 206.1 457.34 217.03Z" fill="#FF9C75"/>
<path d="M457.72 216.85C457.71 217.07 457.89 217.25 458.11 217.25C459.03 217.25 461.15 217.05 461.45 219.46C461.75 221.89 459.43 223.26 458.04 223.34C457.64 223.36 456.71 223.44 456.43 223.74C455.59 224.65 455.2 226.65 454.55 229.13C453.12 234.62 457.44 237.13 457.44 237.13C457.44 237.13 443.06 244.2 443.19 237.11C443.19 237.11 444.33 224.07 444.26 224C443.14 222.88 438.78 222.39 441.52 213.1C444.06 204.49 450.38 205.1 451.98 205.39C453.34 205.63 458.05 205.92 457.72 216.85Z" fill="#FF9C75"/>
<path d="M448.03 204.22C448.03 204.22 450.77 216.65 454.14 217.94C457.87 219.37 457.52 213.44 457.92 217.29C457.92 217.3 464.65 199.02 448.03 204.22Z" fill="#EF001D"/>
<path d="M460.03 220.33C460.03 220.33 458.58 217.28 456.75 221.37L460.03 220.33Z" fill="#E6713E"/>
<path d="M449.34 217.04C448.15 217.01 447.16 217.96 447.13 219.15C447.1 220.34 448.05 221.33 449.24 221.36C450.43 221.39 451.42 220.44 451.45 219.25C451.48 218.05 450.54 217.06 449.34 217.04Z" fill="#FF8752"/>
<path d="M440.34 217.84C441.33 217.66 442.09 216.81 442.11 215.76C442.13 214.96 441.7 214.24 441.06 213.86C441.06 213.86 440.14 216.25 440.34 217.84Z" fill="#FF8752"/>
<path d="M445.21 213.43L444.31 216.63L443.16 216.13L445.21 213.43Z" fill="#E6713E"/>
<path d="M449.17 213.58C449.21 213.23 449.32 212.79 449.14 212.53C449 212.29 448.44 211.94 448.3 211.85C447.83 211.53 447.32 211.61 447.28 212.1C447.44 212.38 448.1 212.31 448.65 212.83C448.9 213.07 448.99 213.34 449.17 213.58Z" fill="black"/>
<path d="M442.59 210.9C442.3 210.98 442.86 210.51 443.27 210.38C443.63 210.23 444.15 210.34 444.36 210.38C444.92 210.49 445.18 210.9 444.74 211.22C444.27 211.56 443.72 210.58 442.59 210.9Z" fill="black"/>
<path d="M447.01 215.18C446.85 215.57 446.57 215.83 446.38 215.75C446.19 215.67 446.16 215.29 446.32 214.9C446.48 214.51 446.76 214.25 446.95 214.33C447.14 214.41 447.17 214.79 447.01 215.18Z" fill="black"/>
<path d="M443.96 213.73C443.81 214.11 443.54 214.35 443.35 214.28C443.17 214.21 443.14 213.84 443.29 213.47C443.44 213.09 443.71 212.85 443.9 212.92C444.08 212.99 444.11 213.36 443.96 213.73Z" fill="black"/>
<path d="M443.88 224.18C443.88 224.18 447.99 224.96 450.06 224.83C452.14 224.7 443.19 230 443.88 224.18Z" fill="black"/>
<path d="M442.52 216.84C442.52 216.84 442.11 218.47 442.82 218.74C444.09 219.22 445.22 218.24 445.22 218.24L442.52 216.84Z" fill="#FCFAF5"/>
<path d="M467 434.08C490.682 434.08 509.88 432.974 509.88 431.61C509.88 430.246 490.682 429.14 467 429.14C443.318 429.14 424.12 430.246 424.12 431.61C424.12 432.974 443.318 434.08 467 434.08Z" fill="#E5F1FF"/>
<path d="M446.14 413.98L444.65 424.59C444.65 424.59 442.25 431.62 440.03 428.9C437.81 426.18 435.6 424.74 435.6 424.74L434.87 413.71L446.14 413.98Z" fill="#FF7B4D"/>
<path d="M440.31 414.38L439.93 428.81C439.93 428.81 446.97 429.87 444.35 425.15L445.89 415.15L440.31 414.38Z" fill="#FF8752"/>
<path d="M481.59 413.16L484.89 423.74C484.89 423.74 487.4 425.94 488.31 425.89C489.96 425.79 490.82 422.94 490.82 422.94L491.09 413.16H481.59Z" fill="#FF7B4D"/>
<path d="M486.35 410.34L488.66 427.85C488.66 427.85 493.39 429.1 490.78 424.39L491.36 410.92L486.35 410.34Z" fill="#FF8752"/>
<path d="M434.86 424.68L425.98 431.88C425.53 432.22 425.85 432.79 426.5 432.79L439.61 432.9C439.93 432.9 440.21 432.76 440.31 432.54L441.3 430.51C441.59 429.92 442.15 429.88 442.1 430.5L442.58 432.46C442.55 432.77 445.69 432.68 445.72 432.4C445.89 430.66 445.53 424.97 445.22 423.38C445.18 423.15 444.94 422.97 444.63 422.93C444.35 422.89 444.07 422.97 443.9 423.13C443.02 423.99 440.18 426.56 438.68 426.04C437.67 425.69 436.36 425.06 435.95 424.7C435.68 424.46 435.17 424.46 434.86 424.68Z" fill="#4F6AFF"/>
<path d="M490.95 422.57L495.99 431.02C496.53 431.84 496.23 432.82 495.26 433.4C493.68 434.34 492.39 436.21 491.4 436.24C489.61 436.29 486.82 434.4 485.19 433.69C484.1 433.21 483.25 432.52 483.38 431.61L484.63 423.13C484.65 423.03 484.83 422.99 484.92 423.07L486.85 424.82C487.48 425.39 489.2 425.32 489.63 424.63C489.93 424.14 490.65 422.56 490.65 422.56C490.72 422.48 490.89 422.49 490.95 422.57Z" fill="#4F6AFF"/>
<path d="M464.19 273.77C468.26 280.97 470.42 286.24 472.76 295.4C475.47 306.02 490.62 395.73 491.9 415.04C488.55 415.85 483.48 415.49 481.37 415.37C474.64 396.1 454.71 333.83 451.83 321.69C451.39 319.82 448.5 320.23 448.73 322.14C450.37 336 447.81 392.33 446.49 415.7C444.74 416.59 436.35 416.43 434.32 416.18C432.12 392.4 420.42 302.37 438.08 273.19C446.15 272.07 456 273.53 464.19 273.77Z" fill="#1B1B25"/>
<path d="M439.13 276.35C439.13 276.35 431.94 294.15 431.94 319.26C431.94 344.37 436.61 408.13 436.61 408.13" stroke="white" stroke-width="0.3147" stroke-miterlimit="10"/>
<path d="M485.97 407.8L460.21 275.53" stroke="white" stroke-width="0.3147" stroke-miterlimit="10"/>
<path d="M455.17 276.23C455.17 276.23 455.41 299.24 465.74 297.42" stroke="white" stroke-width="0.3147" stroke-miterlimit="10"/>
<path opacity="0.21" d="M438.2 276.82L471.44 301.85C471.44 301.85 472.83 288.34 466.92 277.26L438.2 276.82Z" fill="black"/>
<path d="M433.75 298.48C444.08 300.29 442.42 277.4 442.42 277.4" stroke="white" stroke-width="0.3147" stroke-miterlimit="10"/>
<path d="M446.82 408.46L433.34 408.15" stroke="white" stroke-width="0.3147" stroke-miterlimit="10"/>
<path d="M491.24 408.46L479.06 408.13" stroke="white" stroke-width="0.3147" stroke-miterlimit="10"/>
<path d="M402.27 260.59C402.27 260.59 433.19 281.18 436.7 276.02C436.7 276.02 440.72 270.11 432.06 255.38C431.48 253.85 431.08 252.79 431.04 252.53C431.04 252.53 440.28 240.17 441.63 235.98C441.78 235.52 442.38 234.55 442.26 234.56C433.72 235.54 433.63 255.37 425.45 262.55C425.14 262.82 405.14 254.03 405.14 254.03C405.14 254.03 393.46 246.63 393.13 247.42C392.66 248.57 397.41 252.04 397.41 252.04C397.41 252.04 397.41 252.64 396.92 253.13C396.43 253.62 396.25 254.13 396.34 255C396.44 255.86 395.82 256.62 395.86 257.13C395.91 257.65 400.15 260.01 402.27 260.59Z" fill="#FF9C75"/>
<path d="M404.85 254.07C404.85 254.07 401.59 250.19 400.98 250.57C400.37 250.95 397.95 253.28 398.43 254.38C398.92 255.47 401.07 253.62 401.07 253.62C401.07 253.62 401.55 256.29 402.92 256.15C404.3 256 404.85 254.07 404.85 254.07Z" fill="#FF9C75"/>
<path d="M400.28 253.68C400.28 253.68 400.77 254.77 399.92 255.32C399.92 255.32 400.17 256.58 398.88 256.76C398.88 256.76 399.41 257.16 398.73 257.57C398.73 257.57 403.08 259.76 400.28 253.68Z" fill="#FF8752"/>
<path d="M400.07 251.3C399.67 251.89 399.25 252.45 398.8 253C398.6 253.28 398.31 253.54 398.17 253.79C398.02 254.08 398.03 254.21 398.22 254.29C398.72 254.5 399.44 254.33 400.08 254.13C400.25 254.11 400.39 253.96 400.73 254.05C400.91 254.13 400.96 254.32 400.96 254.41L400.99 254.67L401.04 255.73L401.01 255.74L400.83 254.7C400.78 254.54 400.81 254.31 400.66 254.24C400.5 254.19 400.34 254.3 400.17 254.36C399.52 254.6 398.79 254.83 398.1 254.58C397.93 254.51 397.79 254.35 397.78 254.16C397.77 253.97 397.85 253.8 397.94 253.65C398.13 253.35 398.4 253.12 398.63 252.85L400.06 251.3H400.07Z" fill="#E6713E"/>
<path d="M397.31 251.93C397.47 251.89 397.62 251.89 397.75 251.91C397.89 251.93 398 251.98 398.13 252.02C398.24 252.09 398.36 252.14 398.45 252.24C398.55 252.33 398.63 252.44 398.71 252.59L398.7 252.62C398.23 252.42 397.76 252.21 397.3 251.97L397.31 251.93Z" fill="#E6713E"/>
<path d="M396.6 254.1C396.97 254.19 397.33 254.28 397.67 254.39C398.02 254.49 398.36 254.62 398.71 254.7C399.04 254.82 399.41 254.92 399.73 255.02C399.89 255.07 400.05 255.09 400.19 255.06C400.34 255.05 400.51 254.98 400.6 254.81L400.63 254.82C400.51 255.21 400.04 255.32 399.69 255.26C399.32 255.2 398.97 255.1 398.61 255C397.9 254.78 397.22 254.48 396.58 254.12L396.6 254.1Z" fill="#E6713E"/>
<path d="M399.99 255.3C400.14 255.69 400.33 256.18 400 256.67C399.85 256.91 399.55 257.03 399.29 257.06C399.03 257.09 398.79 257.06 398.56 257C398.11 256.85 397.73 256.65 397.36 256.42C396.99 256.19 396.65 255.92 396.34 255.62L396.36 255.59C396.73 255.81 397.1 256.01 397.48 256.2C397.86 256.39 398.24 256.58 398.65 256.69C399.04 256.8 399.53 256.84 399.81 256.51C400.08 256.18 400.02 255.71 399.96 255.3H399.99Z" fill="#E6713E"/>
<path d="M398.89 256.53C399.04 256.76 399.15 257.03 399.16 257.32C399.17 257.46 399.18 257.61 399.11 257.79C399 258.01 398.84 258.1 398.71 258.18C398.44 258.36 398.08 258.32 397.85 258.32C397.73 258.3 397.59 258.3 397.42 258.25C397.26 258.19 397.16 258.08 397.07 257.97L397.08 257.94C397.31 258.08 397.56 258.08 397.83 258.04C398.09 258.03 398.35 258 398.58 257.9C398.69 257.84 398.81 257.78 398.86 257.67C398.91 257.56 398.93 257.43 398.94 257.3C398.95 257.04 398.94 256.78 398.85 256.54L398.89 256.53Z" fill="#E6713E"/>
<path d="M442.36 233.37C442.36 233.37 438.17 233.99 435.33 239.48C433.08 243.83 424.53 261.98 424.53 261.98L407.6 254.72L406.06 265.3C406.06 265.3 432.17 281.03 436.66 277.54C441.16 274.05 444.52 238.97 442.36 233.37Z" fill="white"/>
<path d="M443.12 233.07C443.36 233.64 433.49 253.3 433.77 258.89C434.05 264.52 437.9 274 437.6 274.84C437.6 274.84 441.97 278.29 466.08 274.49C473.49 268.01 466.98 245.97 464.49 238.99C464.49 238.99 457.93 238.05 455.15 234.66C455.14 234.67 444.42 242.98 443.12 233.07Z" fill="white"/>
<g opacity="0.37">
<path opacity="0.37" d="M466.35 244.87C469.04 254.3 471.97 269.33 466.07 274.49C450.85 276.89 443.5 276.4 440.15 275.71C449.09 265.6 457.97 255.44 466.35 244.87Z" fill="#95A1E6"/>
</g>
<path d="M447.04 278.37L432.45 260.55L416.92 260.68L428.83 277.1L435.85 278.1C436.29 278.11 447.04 278.37 447.04 278.37Z" fill="#4F6AFF"/>
<path d="M438.64 268.09V270.71L442.14 272.01L438.64 268.09Z" fill="#020F2B"/>
<path d="M453.67 281.93C441.58 279.36 434.18 276.49 432.8 276.01C432.01 275.74 429.72 274.67 429.73 274.32C429.75 273.53 434.36 275.6 434.19 275.41C434.02 275.22 428.52 273.39 428.51 272.75C428.51 271.8 434.61 273.95 434.71 273.98C436.29 274.46 428.8 272.15 428.64 271.49C428.48 270.84 431.97 271.65 432.1 271.68C432.1 271.68 435.05 272.56 435.16 272.36C435.27 272.16 429.38 268.63 430 268.25C430.62 267.87 435.13 269.99 436.19 270.4C437.25 270.81 438.88 270.96 439.29 270.71C439.64 270.5 439.28 268.78 438.58 268.11C438.58 268.11 441.26 269.3 442.51 270.71C443.17 271.45 443.8 272.48 443.8 272.48L453.91 274.45L453.67 281.93Z" fill="#FF9C75"/>
<path d="M459.46 246.2C459.46 246.2 458.03 236.9 462.78 237.66C470.82 238.94 480.01 257.29 476.49 281.67C475.35 289.59 443.25 281.87 443.25 281.87L445.31 270.28L462.07 273.06L459.46 246.2Z" fill="white"/>
<path d="M510.84 240.5C510.84 242.1 512.14 243.4 513.74 243.4C515.34 243.4 516.64 242.1 516.64 240.5C516.64 238.9 515.34 237.6 513.74 237.6C512.14 237.6 510.84 238.9 510.84 240.5Z" fill="#FF3040"/>
<path d="M520.99 233.72C524.133 233.72 526.68 231.172 526.68 228.03C526.68 224.887 524.133 222.34 520.99 222.34C517.848 222.34 515.3 224.887 515.3 228.03C515.3 231.172 517.848 233.72 520.99 233.72Z" fill="#FF3040"/>
<path d="M516.32 231.46L513.24 230.4C512.94 230.3 512.95 229.88 513.25 229.78L520.03 227.67C520.28 227.59 520.52 227.83 520.43 228.08L518.15 234.87C518.05 235.17 517.63 235.16 517.53 234.86L516.51 231.65C516.49 231.57 516.41 231.49 516.32 231.46Z" fill="#1E274D"/>
<path d="M493.16 255.46C492.77 255.6 497.26 262 503.04 265.34C503.04 265.34 529.57 290.12 534.42 288.31C539.27 286.5 561.1 238.82 549.14 236.69C549.14 236.69 546.02 234.44 543.84 237.26C541.65 240.08 535.09 243.66 524.89 267.24C524.89 267.24 510.04 259.57 508.36 258.69C508.36 258.69 504.94 250.52 504.37 251.85C503.8 253.18 505.13 256.79 505.13 256.79C505.13 256.79 496.58 250.33 495.44 250.9C494.3 251.47 493.16 255.46 493.16 255.46Z" fill="#FEB38C"/>
<path d="M529.52 258.72C536.76 244.8 542.09 239.51 543.83 237.26C546.02 234.44 549.13 236.69 549.13 236.69C557.15 238.11 549.98 260.01 542.92 274.84C538.74 269.24 534.3 263.84 529.52 258.72Z" fill="#F5836B"/>
<path d="M535.37 239.99C535.37 239.99 539.96 226.95 549.09 232.42C558.22 237.9 551.73 264.67 546.73 270.16L526.58 259.11L535.37 239.99Z" fill="#4F6AFF"/>
<path d="M533.43 244.44C534.9 243.1 536.79 241.29 538.73 241.78C539.58 242 540.41 242.42 540.96 243.09C542.06 244.43 541.87 246.47 541.07 248.01C540.27 249.55 538.97 250.77 537.88 252.12C535.49 255.08 534.07 258.81 533.86 262.61" stroke="#FBEFDF" stroke-width="0.2024" stroke-miterlimit="10"/>
<path d="M546.49 269.91C549.74 269.28 555.07 248.52 553.13 244.85C553.13 244.85 543.12 238.94 542.49 239.6C536 246.32 546.49 269.91 546.49 269.91Z" fill="#3054F2"/>
<path d="M526.64 431C526.64 429.38 549.42 428.07 577.53 428.07C605.63 428.07 628.42 429.38 628.42 431C628.42 432.62 605.64 433.93 577.53 433.93C549.42 433.92 526.64 432.61 526.64 431Z" fill="#E5F1FF"/>
<path d="M534.57 422.5L534.74 412.81L544.08 413.53L543.84 422.84L539.48 430.41L531.62 424.36L534.57 422.5Z" fill="#FEB38C"/>
<path d="M535.46 412.99L542.64 428.24C542.64 428.24 541.25 425.85 544.07 423.32V412.98H535.46V412.99Z" fill="#F5836B"/>
<path d="M533.09 421.84C533.09 421.84 535.55 424.61 538.72 427.02C540.61 428.45 543.42 422.34 544.3 421.58C544.48 421.42 544.72 421.56 544.75 421.84L545.85 431.84H518.21C517.89 431.84 517.55 431.49 517.63 431.08C519.09 423.65 533.09 421.84 533.09 421.84Z" fill="#18004C"/>
<path d="M529.72 430.11C529.72 430.11 528.64 425 525.01 424.05C525.01 424.05 519.29 425.93 517.94 430.24H545.53" stroke="white" stroke-width="0.4048" stroke-miterlimit="10"/>
<path d="M544.93 423.92L539.21 430.18" stroke="white" stroke-width="0.4048" stroke-miterlimit="10"/>
<path d="M578.89 423.76L576.02 414.43L586.07 414.07L588.22 423.94L584.51 430.41L576.65 424.36L578.89 423.76Z" fill="#FEB38C"/>
<path d="M578.17 414.43L586.43 425.92C586.43 425.92 586.3 426.29 589.12 423.77L585.89 414.08L578.17 414.43Z" fill="#F5836B"/>
<path d="M577.57 423.06C577.57 423.06 580.03 425.83 583.2 428.24C585.09 429.67 587.9 423.56 588.78 422.8C588.96 422.64 589.2 422.78 589.23 423.06L590.33 433.06H562.69C562.37 433.06 562.03 432.71 562.11 432.3C563.57 424.88 577.57 423.06 577.57 423.06Z" fill="#18004C"/>
<path d="M574.2 431.34C574.2 431.34 573.12 426.23 569.49 425.28C569.49 425.28 563.77 427.16 562.42 431.47H590.01" stroke="white" stroke-width="0.4048" stroke-miterlimit="10"/>
<path d="M589.41 425.15L583.69 431.41" stroke="white" stroke-width="0.4048" stroke-miterlimit="10"/>
<path d="M534.51 301.83C534.51 301.83 530.96 344.34 530.62 356.09C530.29 367.84 533.3 413.71 533.3 413.71L545.18 413.67C545.18 413.67 557.76 332.61 572.12 304.29L534.51 301.83Z" fill="#0A0A0A"/>
<path d="M539.41 406.44L541.29 352.6L549.64 321.11" stroke="white" stroke-width="0.3264" stroke-miterlimit="10"/>
<path d="M546.68 413.98L532.95 413.71L532.14 405.9H548.02L546.68 413.98Z" fill="#4F6AFF"/>
<path d="M534.48 301.83C534.48 301.83 542.7 337.27 551.05 362.34C557.79 382.6 575.66 414.6 575.66 414.6L587.61 414.08L574.92 362.94C574.15 359.92 573.67 356.83 573.47 353.71C572.73 341.94 575.15 318.15 576.16 302.9L534.48 301.83Z" fill="#18004C"/>
<path d="M581.14 406.71C581.41 405.9 564.72 357.45 564.72 351.26C564.72 345.07 564.99 323.8 564.99 323.8" stroke="white" stroke-width="0.3264" stroke-miterlimit="10"/>
<path d="M588.94 413.98L575.66 414.61L571.18 407.25L587.87 406.44L588.94 413.98Z" fill="#4F6AFF"/>
<path d="M566.61 227.93C566.61 227.93 585.18 229.83 586.34 245.2C587.51 260.57 579.78 324.33 579.78 324.33L529.17 321.1L533.94 248.83C534.13 244.91 535.34 241.11 537.44 237.83C539.38 234.8 541.65 231.36 542.95 231.2L563.77 225.85L566.61 227.93Z" fill="#4F6AFF"/>
<path d="M570.91 229.58C583.29 231.46 585.77 237.52 586.35 245.2C587.52 260.57 579.79 323.79 579.79 323.79L529.72 321.1" fill="#3054F2"/>
<path d="M561.8 230.88C560.59 234.82 559.05 238.67 557.2 242.35C554.71 247.31 551.26 252.32 545.99 254.04C543.71 254.79 541.27 254.85 538.95 255.44C536.63 256.03 534.27 257.34 533.43 259.58" stroke="#FBEFDF" stroke-width="0.2024" stroke-miterlimit="10"/>
<path d="M585.32 294.05C580.56 293.46 574.8 293.29 572.04 297.21C569.87 300.29 570.62 304.63 568.86 307.97C566.56 312.33 561.01 313.51 556.68 315.85C550.41 319.24 546.11 326.01 545.69 333.13" stroke="#FBEFDF" stroke-width="0.2024" stroke-miterlimit="10"/>
<path d="M532.28 319.99C540.22 316.98 548.16 311.93 550.99 303.93C551.16 303.44 551.32 302.9 551.17 302.4C551.02 301.91 550.61 301.55 550.19 301.26C547.64 299.47 544.3 299.05 541.8 297.18C540.79 296.42 539.96 295.46 538.97 294.68C535.66 292.12 530.57 292.21 527.36 294.9" stroke="#FBEFDF" stroke-width="0.2024" stroke-miterlimit="10"/>
<path d="M532.26 263.48C536.56 263.98 540.52 266.85 542.32 270.78C545.23 277.11 542.69 285.1 546.18 291.13C549.55 296.94 558.58 298.39 563.56 293.88C565.61 292.02 567 289.4 569.43 288.07C573.85 285.65 580.39 288.24 583.77 284.51" stroke="#FBEFDF" stroke-width="0.2024" stroke-miterlimit="10"/>
<path d="M560.77 214.03L566.2 228.5L562.16 230.52C555.97 232.81 550.37 231.36 549.5 228.8L550.33 220.16L559.01 212.3C559.01 212.3 560.35 213.25 560.51 213.6C560.68 213.94 560.77 214.03 560.77 214.03Z" fill="#FEB38C"/>
<path d="M559.01 212.3L550.33 220.16L550.04 223.25C550.04 223.25 557.31 225 560 213.42" fill="#F5836B"/>
<path d="M543.79 286.14L526.77 255.31C525.86 253.65 524.31 252.48 522.51 252.08L483.97 249.5C483.3 249.35 482.79 250.09 483.13 250.7L499.48 279.93C500.36 281.5 501.83 282.64 503.53 283.06L542.92 287.33C543.6 287.49 544.13 286.76 543.79 286.14Z" fill="#E5F1FF"/>
<path d="M542.41 288.34L527.05 258.83C526.14 257.17 523.58 255.61 521.78 255.21L480.98 252.65C480.31 252.5 479.8 253.24 480.14 253.85L496.49 283.08C497.37 284.65 498.84 285.79 500.54 286.21L541.55 289.52C542.22 289.7 542.75 288.96 542.41 288.34Z" fill="#18004C"/>
<path d="M533.28 267.05L525.45 269.79L535.88 271.82L533.28 267.05Z" fill="#000F30"/>
<path d="M534.79 281.95L498.27 279.89L500.3 283.68L537.26 286.04L534.79 281.95Z" fill="#FCFAF5"/>
<path d="M533.6 279.07C534.92 279.86 550.17 293.04 562.46 299.09C565.85 300.76 570.27 296.88 571.49 293.35L582.88 263.4L564.34 254.04C564.26 254.24 561 272.89 558.34 279.32C557.39 281.62 557.97 281.29 555.83 280.5L539.08 271.97C539.08 271.97 537.69 270.69 537.18 269.79C536.2 268.06 532.77 266.16 532.77 266.16L534.81 269.83C535.17 270.45 534.75 270.58 533.5 270.05L525.18 266.55C525.18 266.55 523.3 266.15 524.29 266.91C525.27 267.67 528.57 269.74 528.69 269.8C530.8 270.93 523.23 267.36 523.26 268.06C523.28 268.77 527.65 271.25 527.58 271.34C527.5 271.43 522.84 269.27 522.83 269.93C522.82 270.6 526.97 272.64 527.11 272.66C527.38 272.7 523.78 270.8 523.76 271.17C523.72 271.52 532.84 278.61 533.6 279.07Z" fill="#FEB38C"/>
<path d="M561.75 266.87C563.18 260.38 564.28 254.15 564.33 254.04L582.87 263.4L575.64 282.42C571.12 277.14 566.54 271.91 561.75 266.87Z" fill="#F5836B"/>
<path d="M563.85 294.45C565.54 293.35 569.66 292.01 571.16 294.12C569.62 297.41 565.59 300.63 562.45 299.08C561.97 298.85 561.49 298.6 561.01 298.34C561.43 296.82 562.3 295.47 563.85 294.45Z" fill="#F5836B"/>
<path d="M566.13 240.54C566.13 240.54 568.21 226.76 578.12 230.46C588.03 234.16 587.78 275.49 583.92 281.87L555.48 268.21L566.13 240.54Z" fill="#4F6AFF"/>
<path d="M569.27 230.76C568.4 238.46 569.35 246.61 573.45 253.18C577.54 259.76 585.19 264.41 592.89 263.56" stroke="#FBEFDF" stroke-width="0.2024" stroke-miterlimit="10"/>
<path d="M563.77 249.8C565.52 250.69 567.11 251.9 568.45 253.35C568.93 253.87 569.39 254.44 569.53 255.13C569.99 257.27 567.4 258.87 567.02 261.02C566.76 262.49 567.61 263.95 568.67 265.01C569.72 266.07 571.01 266.9 571.98 268.03C574.49 270.96 574.27 275.83 571.51 278.52" stroke="#FBEFDF" stroke-width="0.2024" stroke-miterlimit="10"/>
<path d="M586.19 271.9C584.99 270.97 583.19 270.93 581.95 271.79C579.77 273.31 579.93 276.52 578.98 279" stroke="#FBEFDF" stroke-width="0.2024" stroke-miterlimit="10"/>
<path d="M543.79 199.05C543.63 201.89 546.01 200.78 546.01 200.78C552.05 204.66 559.74 211.41 559.74 211.41C559.74 211.41 562.55 210.9 562.57 210.2C562.7 204.82 562.39 198.32 562.39 198.32C562.39 198.32 564.13 197.17 563.85 195.24C563.85 195.24 563.28 192.97 561.33 193.29C561.33 193.29 561.74 191.91 560.76 191.18C559.79 190.45 558.81 191.34 558.81 191.34C558.81 191.34 558.73 188.74 556.05 188.09C553.37 187.44 552.23 189.96 552.23 189.96C552.23 189.96 551.74 188.58 550.93 188.66C550.12 188.74 549.79 190.04 549.79 190.04C549.79 190.04 549.63 187.93 547.19 188.25C544.75 188.57 544.59 191.42 544.59 191.42C544.59 191.42 544.46 190.51 543.37 190.69C541.91 190.93 541.1 192.72 542.48 194.42C542.48 194.42 541.42 195.15 541.51 196.69C541.59 198.24 543.79 199.05 543.79 199.05Z" fill="#18004C"/>
<path d="M559.86 209.39C559.96 209.67 560.31 209.75 560.51 209.54C561.22 208.85 562.62 207.89 563.13 210.66C563.82 214.41 559.9 213.77 559.59 214.27C558.96 215.29 556.93 218.74 553.9 220.07C552.06 220.88 549.32 221.01 547.31 219.08C545.3 217.15 544.18 219.43 545.03 198.75C545.03 198.75 545.5 200.43 547.49 200.03C548.87 199.75 549.95 198.6 551.46 198.18C552.69 197.84 556.06 196.99 557.52 201.26C558.18 203.22 559.24 207.76 559.86 209.39Z" fill="#FEB38C"/>
<path d="M545.31 212.68C545.31 212.68 546.52 213.28 549.49 213.01C549.49 213.01 547.89 215.17 546.72 214.75C545.56 214.33 545.31 212.68 545.31 212.68Z" fill="white"/>
<path d="M562.54 210.38L560.47 211.94C560.47 211.94 561.25 208.17 562.54 210.38Z" fill="#F5836B"/>
<path d="M547.73 208.29C547.73 208.74 547.91 209.11 548.13 209.11C548.35 209.11 548.53 208.74 548.53 208.29C548.53 207.84 548.35 207.47 548.13 207.47C547.91 207.47 547.73 207.84 547.73 208.29Z" fill="#000F30"/>
<path d="M545.13 207.89C545.13 208.34 545.31 208.71 545.53 208.71C545.75 208.71 545.93 208.34 545.93 207.89C545.93 207.44 545.75 207.07 545.53 207.07C545.31 207.07 545.13 207.44 545.13 207.89Z" fill="#000F30"/>
<path d="M551.09 204.77C551.68 205.18 550.76 203.31 549.95 203.11C549.15 202.9 548.35 203.31 548.17 204.02C548.18 204.01 549.67 203.77 551.09 204.77Z" fill="#000F30"/>
<path d="M545.01 204.57C545.86 204.46 546.47 204.61 546.47 204.61C546.36 203.94 545.73 203.47 545 203.45" fill="#000F30"/>
<path d="M546.36 207.87L545.14 211.33C545.12 211.39 545.16 211.45 545.21 211.45L546.65 211.56C546.7 211.56 546.74 211.52 546.74 211.46L546.52 207.89C546.51 207.8 546.39 207.78 546.36 207.87Z" fill="#F5836B"/>
</g>
<defs>
<clipPath id="clip0_101_0">
<rect width="687.52" height="438.29" fill="white"/>
</clipPath>
</defs>
</svg>
